<mxfile host="Electron" modified="2023-10-08T22:33:38.483Z" agent="Mozilla/5.0 (Windows NT 10.0; Win64; x64) AppleWebKit/537.36 (KHTML, like Gecko) draw.io/21.6.8 Chrome/114.0.5735.289 Electron/25.5.0 Safari/537.36" etag="csxDJILzN8Fp1h26cifv" version="21.6.8" type="device" pages="3">
  <diagram id="C5RBs43oDa-KdzZeNtuy" name="normal_matr">
    <mxGraphModel dx="1027" dy="524" grid="1" gridSize="10" guides="1" tooltips="1" connect="1" arrows="1" fold="1" page="1" pageScale="1" pageWidth="827" pageHeight="1169" math="0" shadow="0">
      <root>
        <mxCell id="WIyWlLk6GJQsqaUBKTNV-0" />
        <mxCell id="WIyWlLk6GJQsqaUBKTNV-1" parent="WIyWlLk6GJQsqaUBKTNV-0" />
        <mxCell id="jJleZFhsaii7SYiumtn7-6" style="edgeStyle=orthogonalEdgeStyle;rounded=0;orthogonalLoop=1;jettySize=auto;html=1;exitX=0.5;exitY=0.5;exitDx=0;exitDy=20;exitPerimeter=0;entryX=0.5;entryY=0;entryDx=0;entryDy=0;" edge="1" parent="WIyWlLk6GJQsqaUBKTNV-1" source="jJleZFhsaii7SYiumtn7-2" target="jJleZFhsaii7SYiumtn7-5">
          <mxGeometry relative="1" as="geometry" />
        </mxCell>
        <mxCell id="jJleZFhsaii7SYiumtn7-2" value="Начало" style="html=1;dashed=0;whiteSpace=wrap;shape=mxgraph.dfd.start" vertex="1" parent="WIyWlLk6GJQsqaUBKTNV-1">
          <mxGeometry x="240" y="60" width="100" height="40" as="geometry" />
        </mxCell>
        <mxCell id="jJleZFhsaii7SYiumtn7-12" style="edgeStyle=orthogonalEdgeStyle;rounded=0;orthogonalLoop=1;jettySize=auto;html=1;exitX=0.5;exitY=1;exitDx=0;exitDy=0;entryX=0.5;entryY=0;entryDx=0;entryDy=0;" edge="1" parent="WIyWlLk6GJQsqaUBKTNV-1" source="jJleZFhsaii7SYiumtn7-5" target="jJleZFhsaii7SYiumtn7-11">
          <mxGeometry relative="1" as="geometry" />
        </mxCell>
        <mxCell id="jJleZFhsaii7SYiumtn7-5" value="i = 0 .... n1 - 1" style="shape=loopLimit;whiteSpace=wrap;html=1;" vertex="1" parent="WIyWlLk6GJQsqaUBKTNV-1">
          <mxGeometry x="237.5" y="125" width="105" height="55" as="geometry" />
        </mxCell>
        <mxCell id="jJleZFhsaii7SYiumtn7-10" value="matrix1[n1][m1]&lt;br style=&quot;text-align: center;&quot;&gt;matrix2[m1&lt;span style=&quot;text-align: center;&quot;&gt;][m2]&lt;/span&gt;&lt;br style=&quot;text-align: center;&quot;&gt;&lt;span style=&quot;text-align: center;&quot;&gt;matrix_res[n1][m2]&lt;/span&gt;" style="text;strokeColor=none;fillColor=none;align=left;verticalAlign=middle;spacingLeft=4;spacingRight=4;overflow=hidden;points=[[0,0.5],[1,0.5]];portConstraint=eastwest;rotatable=0;whiteSpace=wrap;html=1;" vertex="1" parent="WIyWlLk6GJQsqaUBKTNV-1">
          <mxGeometry x="359" y="35" width="110" height="90" as="geometry" />
        </mxCell>
        <mxCell id="jJleZFhsaii7SYiumtn7-16" style="edgeStyle=orthogonalEdgeStyle;rounded=0;orthogonalLoop=1;jettySize=auto;html=1;exitX=0.5;exitY=1;exitDx=0;exitDy=0;entryX=0.5;entryY=0;entryDx=0;entryDy=0;" edge="1" parent="WIyWlLk6GJQsqaUBKTNV-1" source="jJleZFhsaii7SYiumtn7-11" target="jJleZFhsaii7SYiumtn7-15">
          <mxGeometry relative="1" as="geometry" />
        </mxCell>
        <mxCell id="jJleZFhsaii7SYiumtn7-11" value="j = 0 .... m2 - 1" style="shape=loopLimit;whiteSpace=wrap;html=1;" vertex="1" parent="WIyWlLk6GJQsqaUBKTNV-1">
          <mxGeometry x="237.5" y="200" width="105" height="55" as="geometry" />
        </mxCell>
        <mxCell id="jJleZFhsaii7SYiumtn7-19" style="edgeStyle=orthogonalEdgeStyle;rounded=0;orthogonalLoop=1;jettySize=auto;html=1;exitX=0.5;exitY=1;exitDx=0;exitDy=0;entryX=0.5;entryY=0;entryDx=0;entryDy=0;entryPerimeter=0;" edge="1" parent="WIyWlLk6GJQsqaUBKTNV-1" source="jJleZFhsaii7SYiumtn7-13" target="jJleZFhsaii7SYiumtn7-18">
          <mxGeometry relative="1" as="geometry" />
        </mxCell>
        <mxCell id="jJleZFhsaii7SYiumtn7-13" value="k = 0 .... m1 - 1" style="shape=loopLimit;whiteSpace=wrap;html=1;" vertex="1" parent="WIyWlLk6GJQsqaUBKTNV-1">
          <mxGeometry x="237.5" y="350" width="105" height="55" as="geometry" />
        </mxCell>
        <mxCell id="jJleZFhsaii7SYiumtn7-17" style="edgeStyle=orthogonalEdgeStyle;rounded=0;orthogonalLoop=1;jettySize=auto;html=1;exitX=0.5;exitY=1;exitDx=0;exitDy=0;entryX=0.5;entryY=0;entryDx=0;entryDy=0;" edge="1" parent="WIyWlLk6GJQsqaUBKTNV-1" source="jJleZFhsaii7SYiumtn7-15" target="jJleZFhsaii7SYiumtn7-13">
          <mxGeometry relative="1" as="geometry" />
        </mxCell>
        <mxCell id="jJleZFhsaii7SYiumtn7-15" value="matrix_res[ i ][ j ] = 0" style="rounded=0;whiteSpace=wrap;html=1;" vertex="1" parent="WIyWlLk6GJQsqaUBKTNV-1">
          <mxGeometry x="230" y="280" width="120" height="50" as="geometry" />
        </mxCell>
        <mxCell id="jJleZFhsaii7SYiumtn7-18" value="A" style="strokeWidth=2;html=1;shape=mxgraph.flowchart.start_2;whiteSpace=wrap;" vertex="1" parent="WIyWlLk6GJQsqaUBKTNV-1">
          <mxGeometry x="264" y="430" width="52" height="50" as="geometry" />
        </mxCell>
        <mxCell id="jJleZFhsaii7SYiumtn7-22" style="edgeStyle=orthogonalEdgeStyle;rounded=0;orthogonalLoop=1;jettySize=auto;html=1;exitX=0.5;exitY=1;exitDx=0;exitDy=0;exitPerimeter=0;" edge="1" parent="WIyWlLk6GJQsqaUBKTNV-1" source="jJleZFhsaii7SYiumtn7-20" target="jJleZFhsaii7SYiumtn7-21">
          <mxGeometry relative="1" as="geometry" />
        </mxCell>
        <mxCell id="jJleZFhsaii7SYiumtn7-20" value="A" style="strokeWidth=2;html=1;shape=mxgraph.flowchart.start_2;whiteSpace=wrap;" vertex="1" parent="WIyWlLk6GJQsqaUBKTNV-1">
          <mxGeometry x="503" y="55" width="52" height="50" as="geometry" />
        </mxCell>
        <mxCell id="jJleZFhsaii7SYiumtn7-31" style="edgeStyle=orthogonalEdgeStyle;rounded=0;orthogonalLoop=1;jettySize=auto;html=1;exitX=0.5;exitY=1;exitDx=0;exitDy=0;" edge="1" parent="WIyWlLk6GJQsqaUBKTNV-1" source="jJleZFhsaii7SYiumtn7-21" target="jJleZFhsaii7SYiumtn7-25">
          <mxGeometry relative="1" as="geometry" />
        </mxCell>
        <mxCell id="jJleZFhsaii7SYiumtn7-21" value="matrix_res[ i ][ j ] += matrix1[ i ][ k ] * matrix2[ k ][ j ]" style="rounded=0;whiteSpace=wrap;html=1;" vertex="1" parent="WIyWlLk6GJQsqaUBKTNV-1">
          <mxGeometry x="469" y="130" width="120" height="50" as="geometry" />
        </mxCell>
        <mxCell id="jJleZFhsaii7SYiumtn7-29" style="edgeStyle=orthogonalEdgeStyle;rounded=0;orthogonalLoop=1;jettySize=auto;html=1;exitX=0.5;exitY=0;exitDx=0;exitDy=0;" edge="1" parent="WIyWlLk6GJQsqaUBKTNV-1" source="jJleZFhsaii7SYiumtn7-25" target="jJleZFhsaii7SYiumtn7-26">
          <mxGeometry relative="1" as="geometry" />
        </mxCell>
        <mxCell id="jJleZFhsaii7SYiumtn7-25" value="&lt;br&gt;" style="shape=loopLimit;whiteSpace=wrap;html=1;rotation=-180;" vertex="1" parent="WIyWlLk6GJQsqaUBKTNV-1">
          <mxGeometry x="476.5" y="200" width="105" height="55" as="geometry" />
        </mxCell>
        <mxCell id="jJleZFhsaii7SYiumtn7-34" style="edgeStyle=orthogonalEdgeStyle;rounded=0;orthogonalLoop=1;jettySize=auto;html=1;exitX=0.5;exitY=0;exitDx=0;exitDy=0;entryX=0.47;entryY=0.948;entryDx=0;entryDy=0;entryPerimeter=0;" edge="1" parent="WIyWlLk6GJQsqaUBKTNV-1" source="jJleZFhsaii7SYiumtn7-26" target="jJleZFhsaii7SYiumtn7-27">
          <mxGeometry relative="1" as="geometry" />
        </mxCell>
        <mxCell id="jJleZFhsaii7SYiumtn7-26" value="&lt;br&gt;" style="shape=loopLimit;whiteSpace=wrap;html=1;rotation=-180;" vertex="1" parent="WIyWlLk6GJQsqaUBKTNV-1">
          <mxGeometry x="476.5" y="277.5" width="105" height="55" as="geometry" />
        </mxCell>
        <mxCell id="jJleZFhsaii7SYiumtn7-35" style="edgeStyle=orthogonalEdgeStyle;rounded=0;orthogonalLoop=1;jettySize=auto;html=1;exitX=0.5;exitY=0;exitDx=0;exitDy=0;entryX=0.5;entryY=0.5;entryDx=0;entryDy=-20;entryPerimeter=0;" edge="1" parent="WIyWlLk6GJQsqaUBKTNV-1" source="jJleZFhsaii7SYiumtn7-27" target="jJleZFhsaii7SYiumtn7-32">
          <mxGeometry relative="1" as="geometry" />
        </mxCell>
        <mxCell id="jJleZFhsaii7SYiumtn7-27" value="&lt;br&gt;" style="shape=loopLimit;whiteSpace=wrap;html=1;rotation=-180;" vertex="1" parent="WIyWlLk6GJQsqaUBKTNV-1">
          <mxGeometry x="474" y="350" width="105" height="55" as="geometry" />
        </mxCell>
        <mxCell id="jJleZFhsaii7SYiumtn7-32" value="Конец" style="html=1;dashed=0;whiteSpace=wrap;shape=mxgraph.dfd.start" vertex="1" parent="WIyWlLk6GJQsqaUBKTNV-1">
          <mxGeometry x="479" y="435" width="100" height="40" as="geometry" />
        </mxCell>
        <mxCell id="jJleZFhsaii7SYiumtn7-36" value="k++" style="text;html=1;strokeColor=none;fillColor=none;align=center;verticalAlign=middle;whiteSpace=wrap;rounded=0;" vertex="1" parent="WIyWlLk6GJQsqaUBKTNV-1">
          <mxGeometry x="499" y="212.5" width="60" height="30" as="geometry" />
        </mxCell>
        <mxCell id="jJleZFhsaii7SYiumtn7-37" value="j++" style="text;html=1;strokeColor=none;fillColor=none;align=center;verticalAlign=middle;whiteSpace=wrap;rounded=0;" vertex="1" parent="WIyWlLk6GJQsqaUBKTNV-1">
          <mxGeometry x="499" y="290" width="60" height="30" as="geometry" />
        </mxCell>
        <mxCell id="jJleZFhsaii7SYiumtn7-38" value="i++" style="text;html=1;strokeColor=none;fillColor=none;align=center;verticalAlign=middle;whiteSpace=wrap;rounded=0;" vertex="1" parent="WIyWlLk6GJQsqaUBKTNV-1">
          <mxGeometry x="499" y="360" width="60" height="30" as="geometry" />
        </mxCell>
        <mxCell id="oqq-LdhPNcgK0Y9NbrNo-0" value="" style="strokeWidth=1;html=1;shape=mxgraph.flowchart.annotation_2;align=left;labelPosition=right;pointerEvents=1;" vertex="1" parent="WIyWlLk6GJQsqaUBKTNV-1">
          <mxGeometry x="350" y="40" width="19" height="80" as="geometry" />
        </mxCell>
        <mxCell id="oqq-LdhPNcgK0Y9NbrNo-2" value="" style="endArrow=none;dashed=1;html=1;rounded=0;entryX=0;entryY=0.5;entryDx=0;entryDy=0;entryPerimeter=0;" edge="1" parent="WIyWlLk6GJQsqaUBKTNV-1" target="oqq-LdhPNcgK0Y9NbrNo-0">
          <mxGeometry width="50" height="50" relative="1" as="geometry">
            <mxPoint x="340" y="80" as="sourcePoint" />
            <mxPoint x="350" y="80" as="targetPoint" />
          </mxGeometry>
        </mxCell>
      </root>
    </mxGraphModel>
  </diagram>
  <diagram id="nmaRu4gdhMBhI_b7Qe6r" name="Vinograd">
    <mxGraphModel dx="1027" dy="524" grid="1" gridSize="10" guides="1" tooltips="1" connect="1" arrows="1" fold="1" page="1" pageScale="1" pageWidth="827" pageHeight="1169" math="0" shadow="0">
      <root>
        <mxCell id="0" />
        <mxCell id="1" parent="0" />
        <mxCell id="Kxa5v21hsQJnWO0LRECQ-1" value="" style="strokeWidth=2;html=1;shape=mxgraph.flowchart.annotation_2;align=left;labelPosition=right;pointerEvents=1;" vertex="1" parent="1">
          <mxGeometry x="160" y="35" width="20" height="90" as="geometry" />
        </mxCell>
        <mxCell id="enAmim7A1YHkQWkfoJ9x-3" style="edgeStyle=orthogonalEdgeStyle;rounded=0;orthogonalLoop=1;jettySize=auto;html=1;exitX=0.5;exitY=0.5;exitDx=0;exitDy=20;exitPerimeter=0;" edge="1" parent="1" source="Kxa5v21hsQJnWO0LRECQ-3" target="enAmim7A1YHkQWkfoJ9x-2">
          <mxGeometry relative="1" as="geometry" />
        </mxCell>
        <mxCell id="Kxa5v21hsQJnWO0LRECQ-3" value="Начало" style="html=1;dashed=0;whiteSpace=wrap;shape=mxgraph.dfd.start" vertex="1" parent="1">
          <mxGeometry x="50" y="60" width="100" height="40" as="geometry" />
        </mxCell>
        <mxCell id="Kxa5v21hsQJnWO0LRECQ-4" style="edgeStyle=orthogonalEdgeStyle;rounded=0;orthogonalLoop=1;jettySize=auto;html=1;exitX=0.5;exitY=1;exitDx=0;exitDy=0;entryX=0.5;entryY=0;entryDx=0;entryDy=0;" edge="1" parent="1" source="Kxa5v21hsQJnWO0LRECQ-5" target="Kxa5v21hsQJnWO0LRECQ-8">
          <mxGeometry relative="1" as="geometry" />
        </mxCell>
        <mxCell id="Kxa5v21hsQJnWO0LRECQ-5" value="i = 0 ... n1 - 1" style="shape=loopLimit;whiteSpace=wrap;html=1;" vertex="1" parent="1">
          <mxGeometry x="47.5" y="200" width="105" height="55" as="geometry" />
        </mxCell>
        <mxCell id="Kxa5v21hsQJnWO0LRECQ-6" value="matrix1[n1][m1]&lt;br style=&quot;text-align: center;&quot;&gt;matrix2[m1&lt;span style=&quot;text-align: center;&quot;&gt;][m2]&lt;/span&gt;&lt;br style=&quot;text-align: center;&quot;&gt;&lt;span style=&quot;text-align: center;&quot;&gt;matrix_res[n1][m2]&lt;/span&gt;" style="text;strokeColor=none;fillColor=none;align=left;verticalAlign=middle;spacingLeft=4;spacingRight=4;overflow=hidden;points=[[0,0.5],[1,0.5]];portConstraint=eastwest;rotatable=0;whiteSpace=wrap;html=1;" vertex="1" parent="1">
          <mxGeometry x="170" y="37.5" width="110" height="85" as="geometry" />
        </mxCell>
        <mxCell id="Kxa5v21hsQJnWO0LRECQ-7" style="edgeStyle=orthogonalEdgeStyle;rounded=0;orthogonalLoop=1;jettySize=auto;html=1;exitX=0.5;exitY=1;exitDx=0;exitDy=0;entryX=0.5;entryY=0;entryDx=0;entryDy=0;" edge="1" parent="1" source="Kxa5v21hsQJnWO0LRECQ-8" target="Kxa5v21hsQJnWO0LRECQ-12">
          <mxGeometry relative="1" as="geometry" />
        </mxCell>
        <mxCell id="Kxa5v21hsQJnWO0LRECQ-8" value="j = 0 ... (m2 / 2) - 1" style="shape=loopLimit;whiteSpace=wrap;html=1;" vertex="1" parent="1">
          <mxGeometry x="47.5" y="275" width="105" height="55" as="geometry" />
        </mxCell>
        <mxCell id="qbIpYUS42wrVyNYaPIQK-9" style="edgeStyle=orthogonalEdgeStyle;rounded=0;orthogonalLoop=1;jettySize=auto;html=1;exitX=0.5;exitY=1;exitDx=0;exitDy=0;entryX=0.5;entryY=1;entryDx=0;entryDy=0;" edge="1" parent="1" source="Kxa5v21hsQJnWO0LRECQ-12" target="qbIpYUS42wrVyNYaPIQK-2">
          <mxGeometry relative="1" as="geometry" />
        </mxCell>
        <mxCell id="Kxa5v21hsQJnWO0LRECQ-12" value="rowCnt[ i ] = &lt;br&gt;rowCnt[ i ] + matrix1[ i ][ j * 2] * matrix1[ i ][ j * 2 + 1]" style="rounded=0;whiteSpace=wrap;html=1;" vertex="1" parent="1">
          <mxGeometry x="30" y="355" width="140" height="62.5" as="geometry" />
        </mxCell>
        <mxCell id="Kxa5v21hsQJnWO0LRECQ-13" value="A" style="strokeWidth=2;html=1;shape=mxgraph.flowchart.start_2;whiteSpace=wrap;" vertex="1" parent="1">
          <mxGeometry x="72.75" y="587.5" width="52" height="50" as="geometry" />
        </mxCell>
        <mxCell id="Kxa5v21hsQJnWO0LRECQ-14" style="edgeStyle=orthogonalEdgeStyle;rounded=0;orthogonalLoop=1;jettySize=auto;html=1;exitX=0.5;exitY=1;exitDx=0;exitDy=0;exitPerimeter=0;" edge="1" parent="1" source="Kxa5v21hsQJnWO0LRECQ-15">
          <mxGeometry relative="1" as="geometry">
            <mxPoint x="339" y="130" as="targetPoint" />
          </mxGeometry>
        </mxCell>
        <mxCell id="Kxa5v21hsQJnWO0LRECQ-15" value="A" style="strokeWidth=2;html=1;shape=mxgraph.flowchart.start_2;whiteSpace=wrap;" vertex="1" parent="1">
          <mxGeometry x="313" y="55" width="52" height="50" as="geometry" />
        </mxCell>
        <mxCell id="Kxa5v21hsQJnWO0LRECQ-28" value="" style="endArrow=none;dashed=1;html=1;rounded=0;exitX=1;exitY=0.5;exitDx=0;exitDy=0;exitPerimeter=0;entryX=0.472;entryY=0.504;entryDx=0;entryDy=0;entryPerimeter=0;" edge="1" parent="1" source="Kxa5v21hsQJnWO0LRECQ-3" target="Kxa5v21hsQJnWO0LRECQ-1">
          <mxGeometry width="50" height="50" relative="1" as="geometry">
            <mxPoint x="150" y="120" as="sourcePoint" />
            <mxPoint x="200" y="70" as="targetPoint" />
          </mxGeometry>
        </mxCell>
        <mxCell id="enAmim7A1YHkQWkfoJ9x-4" style="edgeStyle=orthogonalEdgeStyle;rounded=0;orthogonalLoop=1;jettySize=auto;html=1;exitX=0.5;exitY=1;exitDx=0;exitDy=0;" edge="1" parent="1" source="enAmim7A1YHkQWkfoJ9x-2" target="Kxa5v21hsQJnWO0LRECQ-5">
          <mxGeometry relative="1" as="geometry" />
        </mxCell>
        <mxCell id="enAmim7A1YHkQWkfoJ9x-2" value="Создать массивы&lt;br&gt;rowCnt[ n1 ] = [0, ... 0]&lt;br&gt;colCnt[ m2 ]&amp;nbsp;= [0, ... 0]" style="rounded=0;whiteSpace=wrap;html=1;" vertex="1" parent="1">
          <mxGeometry x="35" y="122.5" width="130" height="50" as="geometry" />
        </mxCell>
        <mxCell id="qbIpYUS42wrVyNYaPIQK-7" style="edgeStyle=orthogonalEdgeStyle;rounded=0;orthogonalLoop=1;jettySize=auto;html=1;exitX=0.5;exitY=0;exitDx=0;exitDy=0;entryX=0.5;entryY=1;entryDx=0;entryDy=0;" edge="1" parent="1" source="qbIpYUS42wrVyNYaPIQK-2" target="qbIpYUS42wrVyNYaPIQK-3">
          <mxGeometry relative="1" as="geometry" />
        </mxCell>
        <mxCell id="qbIpYUS42wrVyNYaPIQK-2" value="&lt;br&gt;" style="shape=loopLimit;whiteSpace=wrap;html=1;rotation=-180;" vertex="1" parent="1">
          <mxGeometry x="48.75" y="437.5" width="105" height="55" as="geometry" />
        </mxCell>
        <mxCell id="qbIpYUS42wrVyNYaPIQK-6" style="edgeStyle=orthogonalEdgeStyle;rounded=0;orthogonalLoop=1;jettySize=auto;html=1;exitX=0.5;exitY=0;exitDx=0;exitDy=0;" edge="1" parent="1" source="qbIpYUS42wrVyNYaPIQK-3" target="Kxa5v21hsQJnWO0LRECQ-13">
          <mxGeometry relative="1" as="geometry" />
        </mxCell>
        <mxCell id="qbIpYUS42wrVyNYaPIQK-3" value="&lt;br&gt;" style="shape=loopLimit;whiteSpace=wrap;html=1;rotation=-180;" vertex="1" parent="1">
          <mxGeometry x="46.25" y="510" width="105" height="55" as="geometry" />
        </mxCell>
        <mxCell id="qbIpYUS42wrVyNYaPIQK-4" value="j++" style="text;html=1;strokeColor=none;fillColor=none;align=center;verticalAlign=middle;whiteSpace=wrap;rounded=0;" vertex="1" parent="1">
          <mxGeometry x="71.25" y="450" width="60" height="30" as="geometry" />
        </mxCell>
        <mxCell id="qbIpYUS42wrVyNYaPIQK-5" value="i++" style="text;html=1;strokeColor=none;fillColor=none;align=center;verticalAlign=middle;whiteSpace=wrap;rounded=0;" vertex="1" parent="1">
          <mxGeometry x="71.25" y="520" width="60" height="30" as="geometry" />
        </mxCell>
        <mxCell id="qbIpYUS42wrVyNYaPIQK-42" style="edgeStyle=orthogonalEdgeStyle;rounded=0;orthogonalLoop=1;jettySize=auto;html=1;exitX=0.5;exitY=1;exitDx=0;exitDy=0;entryX=0.5;entryY=0;entryDx=0;entryDy=0;" edge="1" parent="1" source="qbIpYUS42wrVyNYaPIQK-11" target="qbIpYUS42wrVyNYaPIQK-41">
          <mxGeometry relative="1" as="geometry" />
        </mxCell>
        <mxCell id="qbIpYUS42wrVyNYaPIQK-11" value="matrix_res[ i ][ j ] = -rowCnt[ i ] - colCnt[ j ]" style="rounded=0;whiteSpace=wrap;html=1;" vertex="1" parent="1">
          <mxGeometry x="441" y="281.25" width="120" height="58.75" as="geometry" />
        </mxCell>
        <mxCell id="qbIpYUS42wrVyNYaPIQK-12" style="edgeStyle=orthogonalEdgeStyle;rounded=0;orthogonalLoop=1;jettySize=auto;html=1;exitX=0.5;exitY=0;exitDx=0;exitDy=0;" edge="1" parent="1" source="qbIpYUS42wrVyNYaPIQK-13" target="qbIpYUS42wrVyNYaPIQK-15">
          <mxGeometry relative="1" as="geometry" />
        </mxCell>
        <mxCell id="qbIpYUS42wrVyNYaPIQK-13" value="&lt;br&gt;" style="shape=loopLimit;whiteSpace=wrap;html=1;rotation=-180;" vertex="1" parent="1">
          <mxGeometry x="614.75" y="130" width="105" height="55" as="geometry" />
        </mxCell>
        <mxCell id="qbIpYUS42wrVyNYaPIQK-82" style="edgeStyle=orthogonalEdgeStyle;rounded=0;orthogonalLoop=1;jettySize=auto;html=1;exitX=0.5;exitY=0;exitDx=0;exitDy=0;entryX=0.5;entryY=1;entryDx=0;entryDy=0;" edge="1" parent="1" source="qbIpYUS42wrVyNYaPIQK-15" target="qbIpYUS42wrVyNYaPIQK-17">
          <mxGeometry relative="1" as="geometry" />
        </mxCell>
        <mxCell id="qbIpYUS42wrVyNYaPIQK-15" value="&lt;br&gt;" style="shape=loopLimit;whiteSpace=wrap;html=1;rotation=-180;" vertex="1" parent="1">
          <mxGeometry x="614.75" y="200" width="105" height="55" as="geometry" />
        </mxCell>
        <mxCell id="qbIpYUS42wrVyNYaPIQK-50" style="edgeStyle=orthogonalEdgeStyle;rounded=0;orthogonalLoop=1;jettySize=auto;html=1;exitX=0.5;exitY=0;exitDx=0;exitDy=0;entryX=0.5;entryY=0;entryDx=0;entryDy=0;" edge="1" parent="1" source="qbIpYUS42wrVyNYaPIQK-17" target="qbIpYUS42wrVyNYaPIQK-49">
          <mxGeometry relative="1" as="geometry" />
        </mxCell>
        <mxCell id="qbIpYUS42wrVyNYaPIQK-17" value="&lt;br&gt;" style="shape=loopLimit;whiteSpace=wrap;html=1;rotation=-180;" vertex="1" parent="1">
          <mxGeometry x="612.25" y="272.5" width="105" height="55" as="geometry" />
        </mxCell>
        <mxCell id="qbIpYUS42wrVyNYaPIQK-18" value="Конец" style="html=1;dashed=0;whiteSpace=wrap;shape=mxgraph.dfd.start" vertex="1" parent="1">
          <mxGeometry x="617.25" y="565" width="100" height="40" as="geometry" />
        </mxCell>
        <mxCell id="qbIpYUS42wrVyNYaPIQK-19" value="k++" style="text;html=1;strokeColor=none;fillColor=none;align=center;verticalAlign=middle;whiteSpace=wrap;rounded=0;" vertex="1" parent="1">
          <mxGeometry x="637.25" y="142.5" width="60" height="30" as="geometry" />
        </mxCell>
        <mxCell id="qbIpYUS42wrVyNYaPIQK-20" value="j++" style="text;html=1;strokeColor=none;fillColor=none;align=center;verticalAlign=middle;whiteSpace=wrap;rounded=0;" vertex="1" parent="1">
          <mxGeometry x="637.25" y="212.5" width="52.75" height="30" as="geometry" />
        </mxCell>
        <mxCell id="qbIpYUS42wrVyNYaPIQK-21" value="i++" style="text;html=1;strokeColor=none;fillColor=none;align=center;verticalAlign=middle;whiteSpace=wrap;rounded=0;" vertex="1" parent="1">
          <mxGeometry x="637.25" y="282.5" width="60" height="30" as="geometry" />
        </mxCell>
        <mxCell id="qbIpYUS42wrVyNYaPIQK-22" style="edgeStyle=orthogonalEdgeStyle;rounded=0;orthogonalLoop=1;jettySize=auto;html=1;exitX=0.5;exitY=1;exitDx=0;exitDy=0;entryX=0.5;entryY=0;entryDx=0;entryDy=0;" edge="1" parent="1" source="qbIpYUS42wrVyNYaPIQK-23" target="qbIpYUS42wrVyNYaPIQK-24">
          <mxGeometry relative="1" as="geometry" />
        </mxCell>
        <mxCell id="qbIpYUS42wrVyNYaPIQK-23" value="i = 0 .... m2 - 1" style="shape=loopLimit;whiteSpace=wrap;html=1;" vertex="1" parent="1">
          <mxGeometry x="286.5" y="130" width="105" height="55" as="geometry" />
        </mxCell>
        <mxCell id="qbIpYUS42wrVyNYaPIQK-32" style="edgeStyle=orthogonalEdgeStyle;rounded=0;orthogonalLoop=1;jettySize=auto;html=1;exitX=0.5;exitY=1;exitDx=0;exitDy=0;" edge="1" parent="1" source="qbIpYUS42wrVyNYaPIQK-24" target="qbIpYUS42wrVyNYaPIQK-26">
          <mxGeometry relative="1" as="geometry" />
        </mxCell>
        <mxCell id="qbIpYUS42wrVyNYaPIQK-24" value="j = 0 .... (m1 / 2) - 1" style="shape=loopLimit;whiteSpace=wrap;html=1;" vertex="1" parent="1">
          <mxGeometry x="286.5" y="205" width="105" height="55" as="geometry" />
        </mxCell>
        <mxCell id="qbIpYUS42wrVyNYaPIQK-25" style="edgeStyle=orthogonalEdgeStyle;rounded=0;orthogonalLoop=1;jettySize=auto;html=1;exitX=0.5;exitY=1;exitDx=0;exitDy=0;entryX=0.5;entryY=1;entryDx=0;entryDy=0;" edge="1" parent="1" source="qbIpYUS42wrVyNYaPIQK-26" target="qbIpYUS42wrVyNYaPIQK-28">
          <mxGeometry relative="1" as="geometry" />
        </mxCell>
        <mxCell id="qbIpYUS42wrVyNYaPIQK-26" value="colCnt[ i ] = &lt;br&gt;colCnt[ i ] + matrix1[ j * 2][ i ] * matrix2[ j * 2 + 1][ i ]" style="rounded=0;whiteSpace=wrap;html=1;" vertex="1" parent="1">
          <mxGeometry x="269" y="281.25" width="140" height="62.5" as="geometry" />
        </mxCell>
        <mxCell id="qbIpYUS42wrVyNYaPIQK-27" style="edgeStyle=orthogonalEdgeStyle;rounded=0;orthogonalLoop=1;jettySize=auto;html=1;exitX=0.5;exitY=0;exitDx=0;exitDy=0;entryX=0.5;entryY=1;entryDx=0;entryDy=0;" edge="1" parent="1" source="qbIpYUS42wrVyNYaPIQK-28" target="qbIpYUS42wrVyNYaPIQK-29">
          <mxGeometry relative="1" as="geometry" />
        </mxCell>
        <mxCell id="qbIpYUS42wrVyNYaPIQK-28" value="&lt;br&gt;" style="shape=loopLimit;whiteSpace=wrap;html=1;rotation=-180;" vertex="1" parent="1">
          <mxGeometry x="287.75" y="363.75" width="105" height="55" as="geometry" />
        </mxCell>
        <mxCell id="qbIpYUS42wrVyNYaPIQK-34" style="edgeStyle=orthogonalEdgeStyle;rounded=0;orthogonalLoop=1;jettySize=auto;html=1;exitX=0.5;exitY=0;exitDx=0;exitDy=0;entryX=0.5;entryY=0;entryDx=0;entryDy=0;entryPerimeter=0;" edge="1" parent="1" source="qbIpYUS42wrVyNYaPIQK-29" target="qbIpYUS42wrVyNYaPIQK-33">
          <mxGeometry relative="1" as="geometry" />
        </mxCell>
        <mxCell id="qbIpYUS42wrVyNYaPIQK-29" value="&lt;br&gt;" style="shape=loopLimit;whiteSpace=wrap;html=1;rotation=-180;" vertex="1" parent="1">
          <mxGeometry x="285.25" y="436.25" width="105" height="55" as="geometry" />
        </mxCell>
        <mxCell id="qbIpYUS42wrVyNYaPIQK-30" value="j++" style="text;html=1;strokeColor=none;fillColor=none;align=center;verticalAlign=middle;whiteSpace=wrap;rounded=0;" vertex="1" parent="1">
          <mxGeometry x="310.25" y="376.25" width="60" height="30" as="geometry" />
        </mxCell>
        <mxCell id="qbIpYUS42wrVyNYaPIQK-31" value="i++" style="text;html=1;strokeColor=none;fillColor=none;align=center;verticalAlign=middle;whiteSpace=wrap;rounded=0;" vertex="1" parent="1">
          <mxGeometry x="310.25" y="446.25" width="60" height="30" as="geometry" />
        </mxCell>
        <mxCell id="qbIpYUS42wrVyNYaPIQK-33" value="B" style="strokeWidth=2;html=1;shape=mxgraph.flowchart.start_2;whiteSpace=wrap;" vertex="1" parent="1">
          <mxGeometry x="313" y="515" width="52" height="50" as="geometry" />
        </mxCell>
        <mxCell id="qbIpYUS42wrVyNYaPIQK-39" style="edgeStyle=orthogonalEdgeStyle;rounded=0;orthogonalLoop=1;jettySize=auto;html=1;exitX=0.5;exitY=1;exitDx=0;exitDy=0;exitPerimeter=0;" edge="1" parent="1" source="qbIpYUS42wrVyNYaPIQK-35" target="qbIpYUS42wrVyNYaPIQK-37">
          <mxGeometry relative="1" as="geometry" />
        </mxCell>
        <mxCell id="qbIpYUS42wrVyNYaPIQK-35" value="B" style="strokeWidth=2;html=1;shape=mxgraph.flowchart.start_2;whiteSpace=wrap;" vertex="1" parent="1">
          <mxGeometry x="475" y="55" width="52" height="50" as="geometry" />
        </mxCell>
        <mxCell id="qbIpYUS42wrVyNYaPIQK-36" style="edgeStyle=orthogonalEdgeStyle;rounded=0;orthogonalLoop=1;jettySize=auto;html=1;exitX=0.5;exitY=1;exitDx=0;exitDy=0;entryX=0.5;entryY=0;entryDx=0;entryDy=0;" edge="1" parent="1" source="qbIpYUS42wrVyNYaPIQK-37" target="qbIpYUS42wrVyNYaPIQK-38">
          <mxGeometry relative="1" as="geometry" />
        </mxCell>
        <mxCell id="qbIpYUS42wrVyNYaPIQK-37" value="i = 0 .... n1 - 1" style="shape=loopLimit;whiteSpace=wrap;html=1;" vertex="1" parent="1">
          <mxGeometry x="448.5" y="130" width="105" height="55" as="geometry" />
        </mxCell>
        <mxCell id="qbIpYUS42wrVyNYaPIQK-40" style="edgeStyle=orthogonalEdgeStyle;rounded=0;orthogonalLoop=1;jettySize=auto;html=1;exitX=0.5;exitY=1;exitDx=0;exitDy=0;" edge="1" parent="1" source="qbIpYUS42wrVyNYaPIQK-38">
          <mxGeometry relative="1" as="geometry">
            <mxPoint x="501" y="280" as="targetPoint" />
          </mxGeometry>
        </mxCell>
        <mxCell id="qbIpYUS42wrVyNYaPIQK-38" value="j = 0 ... m2 - 1" style="shape=loopLimit;whiteSpace=wrap;html=1;" vertex="1" parent="1">
          <mxGeometry x="448.5" y="205" width="105" height="55" as="geometry" />
        </mxCell>
        <mxCell id="qbIpYUS42wrVyNYaPIQK-44" style="edgeStyle=orthogonalEdgeStyle;rounded=0;orthogonalLoop=1;jettySize=auto;html=1;exitX=0.5;exitY=1;exitDx=0;exitDy=0;entryX=0.5;entryY=0;entryDx=0;entryDy=0;" edge="1" parent="1" source="qbIpYUS42wrVyNYaPIQK-41" target="qbIpYUS42wrVyNYaPIQK-43">
          <mxGeometry relative="1" as="geometry" />
        </mxCell>
        <mxCell id="qbIpYUS42wrVyNYaPIQK-41" value="k = 0 ... (m1 / 2) - 1" style="shape=loopLimit;whiteSpace=wrap;html=1;" vertex="1" parent="1">
          <mxGeometry x="448.5" y="363.75" width="105" height="55" as="geometry" />
        </mxCell>
        <mxCell id="qbIpYUS42wrVyNYaPIQK-46" style="edgeStyle=orthogonalEdgeStyle;rounded=0;orthogonalLoop=1;jettySize=auto;html=1;exitX=0.5;exitY=1;exitDx=0;exitDy=0;entryX=0.5;entryY=0;entryDx=0;entryDy=0;entryPerimeter=0;" edge="1" parent="1" source="qbIpYUS42wrVyNYaPIQK-43" target="qbIpYUS42wrVyNYaPIQK-45">
          <mxGeometry relative="1" as="geometry" />
        </mxCell>
        <mxCell id="qbIpYUS42wrVyNYaPIQK-43" value="matrix_res[ i ][ j ] += (matrix1[i][2*k] +matrix2[2*k+1][j])*(matrix1[i][2*k+1] + matrix2[2*k][j])" style="rounded=0;whiteSpace=wrap;html=1;" vertex="1" parent="1">
          <mxGeometry x="419" y="437.5" width="161" height="72.5" as="geometry" />
        </mxCell>
        <mxCell id="qbIpYUS42wrVyNYaPIQK-45" value="C" style="strokeWidth=2;html=1;shape=mxgraph.flowchart.start_2;whiteSpace=wrap;" vertex="1" parent="1">
          <mxGeometry x="475" y="526.25" width="52" height="50" as="geometry" />
        </mxCell>
        <mxCell id="qbIpYUS42wrVyNYaPIQK-48" style="edgeStyle=orthogonalEdgeStyle;rounded=0;orthogonalLoop=1;jettySize=auto;html=1;exitX=0.5;exitY=1;exitDx=0;exitDy=0;exitPerimeter=0;entryX=0.5;entryY=1;entryDx=0;entryDy=0;" edge="1" parent="1" source="qbIpYUS42wrVyNYaPIQK-47" target="qbIpYUS42wrVyNYaPIQK-13">
          <mxGeometry relative="1" as="geometry" />
        </mxCell>
        <mxCell id="qbIpYUS42wrVyNYaPIQK-47" value="C" style="strokeWidth=2;html=1;shape=mxgraph.flowchart.start_2;whiteSpace=wrap;" vertex="1" parent="1">
          <mxGeometry x="640" y="55" width="52" height="50" as="geometry" />
        </mxCell>
        <mxCell id="qbIpYUS42wrVyNYaPIQK-63" style="edgeStyle=orthogonalEdgeStyle;rounded=0;orthogonalLoop=1;jettySize=auto;html=1;exitX=0;exitY=0.5;exitDx=0;exitDy=0;entryX=0.5;entryY=0.5;entryDx=0;entryDy=-20;entryPerimeter=0;" edge="1" parent="1" source="qbIpYUS42wrVyNYaPIQK-49" target="qbIpYUS42wrVyNYaPIQK-18">
          <mxGeometry relative="1" as="geometry">
            <mxPoint x="590" y="530" as="targetPoint" />
            <Array as="points">
              <mxPoint x="597" y="388" />
              <mxPoint x="597" y="540" />
              <mxPoint x="667" y="540" />
            </Array>
          </mxGeometry>
        </mxCell>
        <mxCell id="qbIpYUS42wrVyNYaPIQK-81" style="edgeStyle=orthogonalEdgeStyle;rounded=0;orthogonalLoop=1;jettySize=auto;html=1;exitX=1;exitY=0.5;exitDx=0;exitDy=0;entryX=0.5;entryY=0;entryDx=0;entryDy=0;entryPerimeter=0;" edge="1" parent="1" source="qbIpYUS42wrVyNYaPIQK-49" target="qbIpYUS42wrVyNYaPIQK-62">
          <mxGeometry relative="1" as="geometry" />
        </mxCell>
        <mxCell id="qbIpYUS42wrVyNYaPIQK-49" value="m1 % 2 == 1" style="rhombus;whiteSpace=wrap;html=1;" vertex="1" parent="1">
          <mxGeometry x="617.25" y="347.5" width="95" height="80" as="geometry" />
        </mxCell>
        <mxCell id="qbIpYUS42wrVyNYaPIQK-62" value="D" style="strokeWidth=2;html=1;shape=mxgraph.flowchart.start_2;whiteSpace=wrap;" vertex="1" parent="1">
          <mxGeometry x="730" y="410" width="52" height="50" as="geometry" />
        </mxCell>
        <mxCell id="qbIpYUS42wrVyNYaPIQK-85" style="edgeStyle=orthogonalEdgeStyle;rounded=0;orthogonalLoop=1;jettySize=auto;html=1;exitX=0.5;exitY=1;exitDx=0;exitDy=0;exitPerimeter=0;entryX=0.5;entryY=0;entryDx=0;entryDy=0;" edge="1" parent="1" source="qbIpYUS42wrVyNYaPIQK-64" target="qbIpYUS42wrVyNYaPIQK-66">
          <mxGeometry relative="1" as="geometry" />
        </mxCell>
        <mxCell id="qbIpYUS42wrVyNYaPIQK-64" value="D" style="strokeWidth=2;html=1;shape=mxgraph.flowchart.start_2;whiteSpace=wrap;" vertex="1" parent="1">
          <mxGeometry x="860" y="55" width="52" height="50" as="geometry" />
        </mxCell>
        <mxCell id="qbIpYUS42wrVyNYaPIQK-65" style="edgeStyle=orthogonalEdgeStyle;rounded=0;orthogonalLoop=1;jettySize=auto;html=1;exitX=0.5;exitY=1;exitDx=0;exitDy=0;entryX=0.5;entryY=0;entryDx=0;entryDy=0;" edge="1" parent="1" source="qbIpYUS42wrVyNYaPIQK-66" target="qbIpYUS42wrVyNYaPIQK-68">
          <mxGeometry relative="1" as="geometry" />
        </mxCell>
        <mxCell id="qbIpYUS42wrVyNYaPIQK-66" value="i = 0 ... n1 - 1" style="shape=loopLimit;whiteSpace=wrap;html=1;" vertex="1" parent="1">
          <mxGeometry x="833.5" y="130" width="105" height="55" as="geometry" />
        </mxCell>
        <mxCell id="qbIpYUS42wrVyNYaPIQK-67" style="edgeStyle=orthogonalEdgeStyle;rounded=0;orthogonalLoop=1;jettySize=auto;html=1;exitX=0.5;exitY=1;exitDx=0;exitDy=0;entryX=0.5;entryY=0;entryDx=0;entryDy=0;" edge="1" parent="1" source="qbIpYUS42wrVyNYaPIQK-68" target="qbIpYUS42wrVyNYaPIQK-70">
          <mxGeometry relative="1" as="geometry" />
        </mxCell>
        <mxCell id="qbIpYUS42wrVyNYaPIQK-68" value="j = 0 ... m2 - 1" style="shape=loopLimit;whiteSpace=wrap;html=1;" vertex="1" parent="1">
          <mxGeometry x="833.5" y="205" width="105" height="55" as="geometry" />
        </mxCell>
        <mxCell id="qbIpYUS42wrVyNYaPIQK-69" style="edgeStyle=orthogonalEdgeStyle;rounded=0;orthogonalLoop=1;jettySize=auto;html=1;exitX=0.5;exitY=1;exitDx=0;exitDy=0;entryX=0.5;entryY=1;entryDx=0;entryDy=0;" edge="1" parent="1" source="qbIpYUS42wrVyNYaPIQK-70" target="qbIpYUS42wrVyNYaPIQK-72">
          <mxGeometry relative="1" as="geometry" />
        </mxCell>
        <mxCell id="qbIpYUS42wrVyNYaPIQK-70" value="matrix_res[ i ][ j ] = matrix_res[ i ][ j ] + matrix1[ i ][m1 - 1] * matrix2[m1 - 1][ j ]" style="rounded=0;whiteSpace=wrap;html=1;" vertex="1" parent="1">
          <mxGeometry x="816" y="285" width="140" height="62.5" as="geometry" />
        </mxCell>
        <mxCell id="qbIpYUS42wrVyNYaPIQK-71" style="edgeStyle=orthogonalEdgeStyle;rounded=0;orthogonalLoop=1;jettySize=auto;html=1;exitX=0.5;exitY=0;exitDx=0;exitDy=0;entryX=0.5;entryY=1;entryDx=0;entryDy=0;" edge="1" parent="1" source="qbIpYUS42wrVyNYaPIQK-72" target="qbIpYUS42wrVyNYaPIQK-73">
          <mxGeometry relative="1" as="geometry" />
        </mxCell>
        <mxCell id="qbIpYUS42wrVyNYaPIQK-72" value="&lt;br&gt;" style="shape=loopLimit;whiteSpace=wrap;html=1;rotation=-180;" vertex="1" parent="1">
          <mxGeometry x="834.75" y="367.5" width="105" height="55" as="geometry" />
        </mxCell>
        <mxCell id="qbIpYUS42wrVyNYaPIQK-84" style="edgeStyle=orthogonalEdgeStyle;rounded=0;orthogonalLoop=1;jettySize=auto;html=1;exitX=0.5;exitY=0;exitDx=0;exitDy=0;entryX=0.5;entryY=0;entryDx=0;entryDy=0;entryPerimeter=0;" edge="1" parent="1" source="qbIpYUS42wrVyNYaPIQK-73" target="qbIpYUS42wrVyNYaPIQK-83">
          <mxGeometry relative="1" as="geometry" />
        </mxCell>
        <mxCell id="qbIpYUS42wrVyNYaPIQK-73" value="&lt;br&gt;" style="shape=loopLimit;whiteSpace=wrap;html=1;rotation=-180;" vertex="1" parent="1">
          <mxGeometry x="832.25" y="440" width="105" height="55" as="geometry" />
        </mxCell>
        <mxCell id="qbIpYUS42wrVyNYaPIQK-74" value="j++" style="text;html=1;strokeColor=none;fillColor=none;align=center;verticalAlign=middle;whiteSpace=wrap;rounded=0;" vertex="1" parent="1">
          <mxGeometry x="857.25" y="380" width="60" height="30" as="geometry" />
        </mxCell>
        <mxCell id="qbIpYUS42wrVyNYaPIQK-75" value="i++" style="text;html=1;strokeColor=none;fillColor=none;align=center;verticalAlign=middle;whiteSpace=wrap;rounded=0;" vertex="1" parent="1">
          <mxGeometry x="857.25" y="450" width="60" height="30" as="geometry" />
        </mxCell>
        <mxCell id="qbIpYUS42wrVyNYaPIQK-77" value="Да" style="text;html=1;strokeColor=none;fillColor=none;align=center;verticalAlign=middle;whiteSpace=wrap;rounded=0;" vertex="1" parent="1">
          <mxGeometry x="717.25" y="355" width="60" height="30" as="geometry" />
        </mxCell>
        <mxCell id="qbIpYUS42wrVyNYaPIQK-80" style="edgeStyle=orthogonalEdgeStyle;rounded=0;orthogonalLoop=1;jettySize=auto;html=1;exitX=0.5;exitY=1;exitDx=0;exitDy=0;exitPerimeter=0;entryX=0.5;entryY=0.5;entryDx=0;entryDy=-20;entryPerimeter=0;" edge="1" parent="1" source="qbIpYUS42wrVyNYaPIQK-79" target="qbIpYUS42wrVyNYaPIQK-18">
          <mxGeometry relative="1" as="geometry">
            <Array as="points">
              <mxPoint x="756" y="540" />
              <mxPoint x="667" y="540" />
            </Array>
          </mxGeometry>
        </mxCell>
        <mxCell id="qbIpYUS42wrVyNYaPIQK-79" value="E" style="strokeWidth=2;html=1;shape=mxgraph.flowchart.start_2;whiteSpace=wrap;" vertex="1" parent="1">
          <mxGeometry x="730" y="470" width="52" height="50" as="geometry" />
        </mxCell>
        <mxCell id="qbIpYUS42wrVyNYaPIQK-83" value="E" style="strokeWidth=2;html=1;shape=mxgraph.flowchart.start_2;whiteSpace=wrap;" vertex="1" parent="1">
          <mxGeometry x="861.25" y="515" width="52" height="50" as="geometry" />
        </mxCell>
      </root>
    </mxGraphModel>
  </diagram>
  <diagram id="n-xgzs64d_qA1vDgxUFq" name="Vinograd_opt">
    <mxGraphModel dx="1232" dy="629" grid="1" gridSize="10" guides="1" tooltips="1" connect="1" arrows="1" fold="1" page="1" pageScale="1" pageWidth="827" pageHeight="1169" math="0" shadow="0">
      <root>
        <mxCell id="0" />
        <mxCell id="1" parent="0" />
        <mxCell id="Q2IqkQaNwh-MouIJND4g-1" value="" style="strokeWidth=2;html=1;shape=mxgraph.flowchart.annotation_2;align=left;labelPosition=right;pointerEvents=1;" vertex="1" parent="1">
          <mxGeometry x="165" y="35" width="20" height="90" as="geometry" />
        </mxCell>
        <mxCell id="Q2IqkQaNwh-MouIJND4g-2" style="edgeStyle=orthogonalEdgeStyle;rounded=0;orthogonalLoop=1;jettySize=auto;html=1;exitX=0.5;exitY=0.5;exitDx=0;exitDy=20;exitPerimeter=0;" edge="1" parent="1" source="Q2IqkQaNwh-MouIJND4g-3" target="Q2IqkQaNwh-MouIJND4g-16">
          <mxGeometry relative="1" as="geometry" />
        </mxCell>
        <mxCell id="Q2IqkQaNwh-MouIJND4g-3" value="Начало" style="html=1;dashed=0;whiteSpace=wrap;shape=mxgraph.dfd.start" vertex="1" parent="1">
          <mxGeometry x="55" y="60" width="100" height="40" as="geometry" />
        </mxCell>
        <mxCell id="Q2IqkQaNwh-MouIJND4g-4" style="edgeStyle=orthogonalEdgeStyle;rounded=0;orthogonalLoop=1;jettySize=auto;html=1;exitX=0.5;exitY=1;exitDx=0;exitDy=0;entryX=0.5;entryY=0;entryDx=0;entryDy=0;" edge="1" parent="1" source="Q2IqkQaNwh-MouIJND4g-5" target="Q2IqkQaNwh-MouIJND4g-8">
          <mxGeometry relative="1" as="geometry" />
        </mxCell>
        <mxCell id="Q2IqkQaNwh-MouIJND4g-5" value="i = 0 ... n1 - 1" style="shape=loopLimit;whiteSpace=wrap;html=1;" vertex="1" parent="1">
          <mxGeometry x="52.5" y="200" width="105" height="55" as="geometry" />
        </mxCell>
        <mxCell id="Q2IqkQaNwh-MouIJND4g-6" value="matrix1[n1][m1]&lt;br style=&quot;text-align: center;&quot;&gt;matrix2[m1&lt;span style=&quot;text-align: center;&quot;&gt;][m2]&lt;/span&gt;&lt;br style=&quot;text-align: center;&quot;&gt;&lt;span style=&quot;text-align: center;&quot;&gt;matrix_res[n1][m2]&lt;/span&gt;" style="text;strokeColor=none;fillColor=none;align=left;verticalAlign=middle;spacingLeft=4;spacingRight=4;overflow=hidden;points=[[0,0.5],[1,0.5]];portConstraint=eastwest;rotatable=0;whiteSpace=wrap;html=1;" vertex="1" parent="1">
          <mxGeometry x="175" y="37.5" width="110" height="85" as="geometry" />
        </mxCell>
        <mxCell id="Q2IqkQaNwh-MouIJND4g-7" style="edgeStyle=orthogonalEdgeStyle;rounded=0;orthogonalLoop=1;jettySize=auto;html=1;exitX=0.5;exitY=1;exitDx=0;exitDy=0;entryX=0.5;entryY=0;entryDx=0;entryDy=0;" edge="1" parent="1" source="Q2IqkQaNwh-MouIJND4g-8" target="Q2IqkQaNwh-MouIJND4g-10">
          <mxGeometry relative="1" as="geometry" />
        </mxCell>
        <mxCell id="Q2IqkQaNwh-MouIJND4g-8" value="j = 0 ... (m2 / 2) - 1" style="shape=loopLimit;whiteSpace=wrap;html=1;" vertex="1" parent="1">
          <mxGeometry x="52.5" y="275" width="105" height="55" as="geometry" />
        </mxCell>
        <mxCell id="Q2IqkQaNwh-MouIJND4g-9" style="edgeStyle=orthogonalEdgeStyle;rounded=0;orthogonalLoop=1;jettySize=auto;html=1;exitX=0.5;exitY=1;exitDx=0;exitDy=0;entryX=0.5;entryY=1;entryDx=0;entryDy=0;" edge="1" parent="1" source="Q2IqkQaNwh-MouIJND4g-10" target="Q2IqkQaNwh-MouIJND4g-18">
          <mxGeometry relative="1" as="geometry" />
        </mxCell>
        <mxCell id="Q2IqkQaNwh-MouIJND4g-10" value="rowCnt[ i ] += matrix1[ i ][ j &amp;lt;&amp;lt; 1] * matrix1[ i ][ j &amp;lt;&amp;lt; 1&amp;nbsp;+ 1]" style="rounded=0;whiteSpace=wrap;html=1;" vertex="1" parent="1">
          <mxGeometry x="35" y="355" width="140" height="62.5" as="geometry" />
        </mxCell>
        <mxCell id="Q2IqkQaNwh-MouIJND4g-11" value="A" style="strokeWidth=2;html=1;shape=mxgraph.flowchart.start_2;whiteSpace=wrap;" vertex="1" parent="1">
          <mxGeometry x="77.75" y="587.5" width="52" height="50" as="geometry" />
        </mxCell>
        <mxCell id="Q2IqkQaNwh-MouIJND4g-12" style="edgeStyle=orthogonalEdgeStyle;rounded=0;orthogonalLoop=1;jettySize=auto;html=1;exitX=0.5;exitY=1;exitDx=0;exitDy=0;exitPerimeter=0;" edge="1" parent="1" source="Q2IqkQaNwh-MouIJND4g-13">
          <mxGeometry relative="1" as="geometry">
            <mxPoint x="344" y="130" as="targetPoint" />
          </mxGeometry>
        </mxCell>
        <mxCell id="Q2IqkQaNwh-MouIJND4g-13" value="A" style="strokeWidth=2;html=1;shape=mxgraph.flowchart.start_2;whiteSpace=wrap;" vertex="1" parent="1">
          <mxGeometry x="318" y="55" width="52" height="50" as="geometry" />
        </mxCell>
        <mxCell id="Q2IqkQaNwh-MouIJND4g-14" value="" style="endArrow=none;dashed=1;html=1;rounded=0;exitX=1;exitY=0.5;exitDx=0;exitDy=0;exitPerimeter=0;entryX=0.472;entryY=0.504;entryDx=0;entryDy=0;entryPerimeter=0;" edge="1" parent="1" source="Q2IqkQaNwh-MouIJND4g-3" target="Q2IqkQaNwh-MouIJND4g-1">
          <mxGeometry width="50" height="50" relative="1" as="geometry">
            <mxPoint x="155" y="120" as="sourcePoint" />
            <mxPoint x="205" y="70" as="targetPoint" />
          </mxGeometry>
        </mxCell>
        <mxCell id="Q2IqkQaNwh-MouIJND4g-15" style="edgeStyle=orthogonalEdgeStyle;rounded=0;orthogonalLoop=1;jettySize=auto;html=1;exitX=0.5;exitY=1;exitDx=0;exitDy=0;" edge="1" parent="1" source="Q2IqkQaNwh-MouIJND4g-16" target="Q2IqkQaNwh-MouIJND4g-5">
          <mxGeometry relative="1" as="geometry" />
        </mxCell>
        <mxCell id="Q2IqkQaNwh-MouIJND4g-16" value="Создать массивы&lt;br&gt;rowCnt[ n1 ] = [0, ... 0]&lt;br&gt;colCnt[ m2 ]&amp;nbsp;= [0, ... 0]" style="rounded=0;whiteSpace=wrap;html=1;" vertex="1" parent="1">
          <mxGeometry x="40" y="122.5" width="130" height="50" as="geometry" />
        </mxCell>
        <mxCell id="Q2IqkQaNwh-MouIJND4g-17" style="edgeStyle=orthogonalEdgeStyle;rounded=0;orthogonalLoop=1;jettySize=auto;html=1;exitX=0.5;exitY=0;exitDx=0;exitDy=0;entryX=0.5;entryY=1;entryDx=0;entryDy=0;" edge="1" parent="1" source="Q2IqkQaNwh-MouIJND4g-18" target="Q2IqkQaNwh-MouIJND4g-20">
          <mxGeometry relative="1" as="geometry" />
        </mxCell>
        <mxCell id="Q2IqkQaNwh-MouIJND4g-18" value="&lt;br&gt;" style="shape=loopLimit;whiteSpace=wrap;html=1;rotation=-180;" vertex="1" parent="1">
          <mxGeometry x="53.75" y="437.5" width="105" height="55" as="geometry" />
        </mxCell>
        <mxCell id="Q2IqkQaNwh-MouIJND4g-19" style="edgeStyle=orthogonalEdgeStyle;rounded=0;orthogonalLoop=1;jettySize=auto;html=1;exitX=0.5;exitY=0;exitDx=0;exitDy=0;" edge="1" parent="1" source="Q2IqkQaNwh-MouIJND4g-20" target="Q2IqkQaNwh-MouIJND4g-11">
          <mxGeometry relative="1" as="geometry" />
        </mxCell>
        <mxCell id="Q2IqkQaNwh-MouIJND4g-20" value="&lt;br&gt;" style="shape=loopLimit;whiteSpace=wrap;html=1;rotation=-180;" vertex="1" parent="1">
          <mxGeometry x="51.25" y="510" width="105" height="55" as="geometry" />
        </mxCell>
        <mxCell id="Q2IqkQaNwh-MouIJND4g-21" value="j++" style="text;html=1;strokeColor=none;fillColor=none;align=center;verticalAlign=middle;whiteSpace=wrap;rounded=0;" vertex="1" parent="1">
          <mxGeometry x="76.25" y="450" width="60" height="30" as="geometry" />
        </mxCell>
        <mxCell id="Q2IqkQaNwh-MouIJND4g-22" value="i++" style="text;html=1;strokeColor=none;fillColor=none;align=center;verticalAlign=middle;whiteSpace=wrap;rounded=0;" vertex="1" parent="1">
          <mxGeometry x="76.25" y="520" width="60" height="30" as="geometry" />
        </mxCell>
        <mxCell id="Q2IqkQaNwh-MouIJND4g-23" style="edgeStyle=orthogonalEdgeStyle;rounded=0;orthogonalLoop=1;jettySize=auto;html=1;exitX=0.5;exitY=1;exitDx=0;exitDy=0;entryX=0.5;entryY=0;entryDx=0;entryDy=0;" edge="1" parent="1" source="Q2IqkQaNwh-MouIJND4g-24" target="Q2IqkQaNwh-MouIJND4g-26">
          <mxGeometry relative="1" as="geometry" />
        </mxCell>
        <mxCell id="Q2IqkQaNwh-MouIJND4g-24" value="i = 0 .... m2 - 1" style="shape=loopLimit;whiteSpace=wrap;html=1;" vertex="1" parent="1">
          <mxGeometry x="291.5" y="130" width="105" height="55" as="geometry" />
        </mxCell>
        <mxCell id="Q2IqkQaNwh-MouIJND4g-25" style="edgeStyle=orthogonalEdgeStyle;rounded=0;orthogonalLoop=1;jettySize=auto;html=1;exitX=0.5;exitY=1;exitDx=0;exitDy=0;" edge="1" parent="1" source="Q2IqkQaNwh-MouIJND4g-26" target="Q2IqkQaNwh-MouIJND4g-28">
          <mxGeometry relative="1" as="geometry" />
        </mxCell>
        <mxCell id="Q2IqkQaNwh-MouIJND4g-26" value="j = 0 .... (m1 / 2) - 1" style="shape=loopLimit;whiteSpace=wrap;html=1;" vertex="1" parent="1">
          <mxGeometry x="291.5" y="205" width="105" height="55" as="geometry" />
        </mxCell>
        <mxCell id="Q2IqkQaNwh-MouIJND4g-27" style="edgeStyle=orthogonalEdgeStyle;rounded=0;orthogonalLoop=1;jettySize=auto;html=1;exitX=0.5;exitY=1;exitDx=0;exitDy=0;entryX=0.5;entryY=1;entryDx=0;entryDy=0;" edge="1" parent="1" source="Q2IqkQaNwh-MouIJND4g-28" target="Q2IqkQaNwh-MouIJND4g-30">
          <mxGeometry relative="1" as="geometry" />
        </mxCell>
        <mxCell id="Q2IqkQaNwh-MouIJND4g-28" value="colCnt[ i ] += &lt;br&gt;matrix2[ j&amp;lt;&amp;lt; 1][ i ] * matrix2[ j &amp;lt;&amp;lt; 1 + 1][ i ]" style="rounded=0;whiteSpace=wrap;html=1;" vertex="1" parent="1">
          <mxGeometry x="274" y="281.25" width="140" height="62.5" as="geometry" />
        </mxCell>
        <mxCell id="Q2IqkQaNwh-MouIJND4g-29" style="edgeStyle=orthogonalEdgeStyle;rounded=0;orthogonalLoop=1;jettySize=auto;html=1;exitX=0.5;exitY=0;exitDx=0;exitDy=0;entryX=0.5;entryY=1;entryDx=0;entryDy=0;" edge="1" parent="1" source="Q2IqkQaNwh-MouIJND4g-30" target="Q2IqkQaNwh-MouIJND4g-32">
          <mxGeometry relative="1" as="geometry" />
        </mxCell>
        <mxCell id="Q2IqkQaNwh-MouIJND4g-30" value="&lt;br&gt;" style="shape=loopLimit;whiteSpace=wrap;html=1;rotation=-180;" vertex="1" parent="1">
          <mxGeometry x="292.75" y="363.75" width="105" height="55" as="geometry" />
        </mxCell>
        <mxCell id="Q2IqkQaNwh-MouIJND4g-31" style="edgeStyle=orthogonalEdgeStyle;rounded=0;orthogonalLoop=1;jettySize=auto;html=1;exitX=0.5;exitY=0;exitDx=0;exitDy=0;entryX=0.5;entryY=0;entryDx=0;entryDy=0;entryPerimeter=0;" edge="1" parent="1" source="Q2IqkQaNwh-MouIJND4g-32" target="Q2IqkQaNwh-MouIJND4g-35">
          <mxGeometry relative="1" as="geometry" />
        </mxCell>
        <mxCell id="Q2IqkQaNwh-MouIJND4g-32" value="&lt;br&gt;" style="shape=loopLimit;whiteSpace=wrap;html=1;rotation=-180;" vertex="1" parent="1">
          <mxGeometry x="290.25" y="436.25" width="105" height="55" as="geometry" />
        </mxCell>
        <mxCell id="Q2IqkQaNwh-MouIJND4g-33" value="j++" style="text;html=1;strokeColor=none;fillColor=none;align=center;verticalAlign=middle;whiteSpace=wrap;rounded=0;" vertex="1" parent="1">
          <mxGeometry x="315.25" y="376.25" width="60" height="30" as="geometry" />
        </mxCell>
        <mxCell id="Q2IqkQaNwh-MouIJND4g-34" value="i++" style="text;html=1;strokeColor=none;fillColor=none;align=center;verticalAlign=middle;whiteSpace=wrap;rounded=0;" vertex="1" parent="1">
          <mxGeometry x="315.25" y="446.25" width="60" height="30" as="geometry" />
        </mxCell>
        <mxCell id="Q2IqkQaNwh-MouIJND4g-35" value="B" style="strokeWidth=2;html=1;shape=mxgraph.flowchart.start_2;whiteSpace=wrap;" vertex="1" parent="1">
          <mxGeometry x="318" y="515" width="52" height="50" as="geometry" />
        </mxCell>
        <mxCell id="K-nqWtAdoZF8oaJMiiUt-1" style="edgeStyle=orthogonalEdgeStyle;rounded=0;orthogonalLoop=1;jettySize=auto;html=1;exitX=0.5;exitY=1;exitDx=0;exitDy=0;entryX=0.5;entryY=0;entryDx=0;entryDy=0;" edge="1" parent="1" source="K-nqWtAdoZF8oaJMiiUt-2" target="K-nqWtAdoZF8oaJMiiUt-20">
          <mxGeometry relative="1" as="geometry" />
        </mxCell>
        <mxCell id="K-nqWtAdoZF8oaJMiiUt-2" value="matrix_res[ i ][ j ] = -rowCnt[ i ] - colCnt[ j ]" style="rounded=0;whiteSpace=wrap;html=1;" vertex="1" parent="1">
          <mxGeometry x="450" y="281.25" width="120" height="58.75" as="geometry" />
        </mxCell>
        <mxCell id="K-nqWtAdoZF8oaJMiiUt-3" style="edgeStyle=orthogonalEdgeStyle;rounded=0;orthogonalLoop=1;jettySize=auto;html=1;exitX=0.5;exitY=0;exitDx=0;exitDy=0;" edge="1" parent="1" source="K-nqWtAdoZF8oaJMiiUt-4" target="K-nqWtAdoZF8oaJMiiUt-6">
          <mxGeometry relative="1" as="geometry" />
        </mxCell>
        <mxCell id="K-nqWtAdoZF8oaJMiiUt-4" value="&lt;br&gt;" style="shape=loopLimit;whiteSpace=wrap;html=1;rotation=-180;" vertex="1" parent="1">
          <mxGeometry x="623.75" y="130" width="105" height="55" as="geometry" />
        </mxCell>
        <mxCell id="K-nqWtAdoZF8oaJMiiUt-5" style="edgeStyle=orthogonalEdgeStyle;rounded=0;orthogonalLoop=1;jettySize=auto;html=1;exitX=0.5;exitY=0;exitDx=0;exitDy=0;entryX=0.5;entryY=1;entryDx=0;entryDy=0;" edge="1" parent="1" source="K-nqWtAdoZF8oaJMiiUt-6" target="K-nqWtAdoZF8oaJMiiUt-8">
          <mxGeometry relative="1" as="geometry" />
        </mxCell>
        <mxCell id="K-nqWtAdoZF8oaJMiiUt-6" value="&lt;br&gt;" style="shape=loopLimit;whiteSpace=wrap;html=1;rotation=-180;" vertex="1" parent="1">
          <mxGeometry x="623.75" y="200" width="105" height="55" as="geometry" />
        </mxCell>
        <mxCell id="K-nqWtAdoZF8oaJMiiUt-7" style="edgeStyle=orthogonalEdgeStyle;rounded=0;orthogonalLoop=1;jettySize=auto;html=1;exitX=0.5;exitY=0;exitDx=0;exitDy=0;entryX=0.5;entryY=0;entryDx=0;entryDy=0;" edge="1" parent="1" source="K-nqWtAdoZF8oaJMiiUt-8" target="K-nqWtAdoZF8oaJMiiUt-27">
          <mxGeometry relative="1" as="geometry" />
        </mxCell>
        <mxCell id="K-nqWtAdoZF8oaJMiiUt-8" value="&lt;br&gt;" style="shape=loopLimit;whiteSpace=wrap;html=1;rotation=-180;" vertex="1" parent="1">
          <mxGeometry x="621.25" y="272.5" width="105" height="55" as="geometry" />
        </mxCell>
        <mxCell id="K-nqWtAdoZF8oaJMiiUt-9" value="Конец" style="html=1;dashed=0;whiteSpace=wrap;shape=mxgraph.dfd.start" vertex="1" parent="1">
          <mxGeometry x="626.25" y="565" width="100" height="40" as="geometry" />
        </mxCell>
        <mxCell id="K-nqWtAdoZF8oaJMiiUt-10" value="k++" style="text;html=1;strokeColor=none;fillColor=none;align=center;verticalAlign=middle;whiteSpace=wrap;rounded=0;" vertex="1" parent="1">
          <mxGeometry x="646.25" y="142.5" width="60" height="30" as="geometry" />
        </mxCell>
        <mxCell id="K-nqWtAdoZF8oaJMiiUt-11" value="j++" style="text;html=1;strokeColor=none;fillColor=none;align=center;verticalAlign=middle;whiteSpace=wrap;rounded=0;" vertex="1" parent="1">
          <mxGeometry x="646.25" y="212.5" width="52.75" height="30" as="geometry" />
        </mxCell>
        <mxCell id="K-nqWtAdoZF8oaJMiiUt-12" value="i++" style="text;html=1;strokeColor=none;fillColor=none;align=center;verticalAlign=middle;whiteSpace=wrap;rounded=0;" vertex="1" parent="1">
          <mxGeometry x="646.25" y="282.5" width="60" height="30" as="geometry" />
        </mxCell>
        <mxCell id="K-nqWtAdoZF8oaJMiiUt-13" style="edgeStyle=orthogonalEdgeStyle;rounded=0;orthogonalLoop=1;jettySize=auto;html=1;exitX=0.5;exitY=1;exitDx=0;exitDy=0;exitPerimeter=0;" edge="1" parent="1" source="K-nqWtAdoZF8oaJMiiUt-14" target="K-nqWtAdoZF8oaJMiiUt-16">
          <mxGeometry relative="1" as="geometry" />
        </mxCell>
        <mxCell id="K-nqWtAdoZF8oaJMiiUt-14" value="B" style="strokeWidth=2;html=1;shape=mxgraph.flowchart.start_2;whiteSpace=wrap;" vertex="1" parent="1">
          <mxGeometry x="484" y="55" width="52" height="50" as="geometry" />
        </mxCell>
        <mxCell id="K-nqWtAdoZF8oaJMiiUt-15" style="edgeStyle=orthogonalEdgeStyle;rounded=0;orthogonalLoop=1;jettySize=auto;html=1;exitX=0.5;exitY=1;exitDx=0;exitDy=0;entryX=0.5;entryY=0;entryDx=0;entryDy=0;" edge="1" parent="1" source="K-nqWtAdoZF8oaJMiiUt-16" target="K-nqWtAdoZF8oaJMiiUt-18">
          <mxGeometry relative="1" as="geometry" />
        </mxCell>
        <mxCell id="K-nqWtAdoZF8oaJMiiUt-16" value="i = 0 .... n1 - 1" style="shape=loopLimit;whiteSpace=wrap;html=1;" vertex="1" parent="1">
          <mxGeometry x="457.5" y="130" width="105" height="55" as="geometry" />
        </mxCell>
        <mxCell id="K-nqWtAdoZF8oaJMiiUt-17" style="edgeStyle=orthogonalEdgeStyle;rounded=0;orthogonalLoop=1;jettySize=auto;html=1;exitX=0.5;exitY=1;exitDx=0;exitDy=0;" edge="1" parent="1" source="K-nqWtAdoZF8oaJMiiUt-18">
          <mxGeometry relative="1" as="geometry">
            <mxPoint x="510" y="280" as="targetPoint" />
          </mxGeometry>
        </mxCell>
        <mxCell id="K-nqWtAdoZF8oaJMiiUt-18" value="j = 0 ... m2 - 1" style="shape=loopLimit;whiteSpace=wrap;html=1;" vertex="1" parent="1">
          <mxGeometry x="457.5" y="205" width="105" height="55" as="geometry" />
        </mxCell>
        <mxCell id="K-nqWtAdoZF8oaJMiiUt-19" style="edgeStyle=orthogonalEdgeStyle;rounded=0;orthogonalLoop=1;jettySize=auto;html=1;exitX=0.5;exitY=1;exitDx=0;exitDy=0;entryX=0.5;entryY=0;entryDx=0;entryDy=0;" edge="1" parent="1" source="K-nqWtAdoZF8oaJMiiUt-20">
          <mxGeometry relative="1" as="geometry">
            <mxPoint x="509" y="438" as="targetPoint" />
          </mxGeometry>
        </mxCell>
        <mxCell id="K-nqWtAdoZF8oaJMiiUt-20" value="k = 0 ... (m1 / 2) - 1" style="shape=loopLimit;whiteSpace=wrap;html=1;" vertex="1" parent="1">
          <mxGeometry x="457.5" y="363.75" width="105" height="55" as="geometry" />
        </mxCell>
        <mxCell id="K-nqWtAdoZF8oaJMiiUt-21" style="edgeStyle=orthogonalEdgeStyle;rounded=0;orthogonalLoop=1;jettySize=auto;html=1;exitX=0.5;exitY=1;exitDx=0;exitDy=0;entryX=0.5;entryY=0;entryDx=0;entryDy=0;entryPerimeter=0;" edge="1" parent="1" target="K-nqWtAdoZF8oaJMiiUt-22">
          <mxGeometry relative="1" as="geometry">
            <mxPoint x="509" y="510" as="sourcePoint" />
          </mxGeometry>
        </mxCell>
        <mxCell id="K-nqWtAdoZF8oaJMiiUt-22" value="C" style="strokeWidth=2;html=1;shape=mxgraph.flowchart.start_2;whiteSpace=wrap;" vertex="1" parent="1">
          <mxGeometry x="484" y="526.25" width="52" height="50" as="geometry" />
        </mxCell>
        <mxCell id="K-nqWtAdoZF8oaJMiiUt-23" style="edgeStyle=orthogonalEdgeStyle;rounded=0;orthogonalLoop=1;jettySize=auto;html=1;exitX=0.5;exitY=1;exitDx=0;exitDy=0;exitPerimeter=0;entryX=0.5;entryY=1;entryDx=0;entryDy=0;" edge="1" parent="1" source="K-nqWtAdoZF8oaJMiiUt-24" target="K-nqWtAdoZF8oaJMiiUt-4">
          <mxGeometry relative="1" as="geometry" />
        </mxCell>
        <mxCell id="K-nqWtAdoZF8oaJMiiUt-24" value="C" style="strokeWidth=2;html=1;shape=mxgraph.flowchart.start_2;whiteSpace=wrap;" vertex="1" parent="1">
          <mxGeometry x="649" y="55" width="52" height="50" as="geometry" />
        </mxCell>
        <mxCell id="K-nqWtAdoZF8oaJMiiUt-25" style="edgeStyle=orthogonalEdgeStyle;rounded=0;orthogonalLoop=1;jettySize=auto;html=1;exitX=0;exitY=0.5;exitDx=0;exitDy=0;entryX=0.5;entryY=0.5;entryDx=0;entryDy=-20;entryPerimeter=0;" edge="1" parent="1" source="K-nqWtAdoZF8oaJMiiUt-27" target="K-nqWtAdoZF8oaJMiiUt-9">
          <mxGeometry relative="1" as="geometry">
            <mxPoint x="599" y="530" as="targetPoint" />
            <Array as="points">
              <mxPoint x="606" y="388" />
              <mxPoint x="606" y="540" />
              <mxPoint x="676" y="540" />
            </Array>
          </mxGeometry>
        </mxCell>
        <mxCell id="K-nqWtAdoZF8oaJMiiUt-26" style="edgeStyle=orthogonalEdgeStyle;rounded=0;orthogonalLoop=1;jettySize=auto;html=1;exitX=1;exitY=0.5;exitDx=0;exitDy=0;entryX=0.5;entryY=0;entryDx=0;entryDy=0;entryPerimeter=0;" edge="1" parent="1" source="K-nqWtAdoZF8oaJMiiUt-27" target="K-nqWtAdoZF8oaJMiiUt-28">
          <mxGeometry relative="1" as="geometry" />
        </mxCell>
        <mxCell id="K-nqWtAdoZF8oaJMiiUt-27" value="m1 % 2 == 1" style="rhombus;whiteSpace=wrap;html=1;" vertex="1" parent="1">
          <mxGeometry x="626.25" y="347.5" width="95" height="80" as="geometry" />
        </mxCell>
        <mxCell id="K-nqWtAdoZF8oaJMiiUt-28" value="D" style="strokeWidth=2;html=1;shape=mxgraph.flowchart.start_2;whiteSpace=wrap;" vertex="1" parent="1">
          <mxGeometry x="739" y="410" width="52" height="50" as="geometry" />
        </mxCell>
        <mxCell id="K-nqWtAdoZF8oaJMiiUt-29" style="edgeStyle=orthogonalEdgeStyle;rounded=0;orthogonalLoop=1;jettySize=auto;html=1;exitX=0.5;exitY=1;exitDx=0;exitDy=0;exitPerimeter=0;entryX=0.5;entryY=0;entryDx=0;entryDy=0;" edge="1" parent="1" source="K-nqWtAdoZF8oaJMiiUt-30" target="K-nqWtAdoZF8oaJMiiUt-32">
          <mxGeometry relative="1" as="geometry" />
        </mxCell>
        <mxCell id="K-nqWtAdoZF8oaJMiiUt-30" value="D" style="strokeWidth=2;html=1;shape=mxgraph.flowchart.start_2;whiteSpace=wrap;" vertex="1" parent="1">
          <mxGeometry x="869" y="55" width="52" height="50" as="geometry" />
        </mxCell>
        <mxCell id="K-nqWtAdoZF8oaJMiiUt-31" style="edgeStyle=orthogonalEdgeStyle;rounded=0;orthogonalLoop=1;jettySize=auto;html=1;exitX=0.5;exitY=1;exitDx=0;exitDy=0;entryX=0.5;entryY=0;entryDx=0;entryDy=0;" edge="1" parent="1" source="K-nqWtAdoZF8oaJMiiUt-32" target="K-nqWtAdoZF8oaJMiiUt-34">
          <mxGeometry relative="1" as="geometry" />
        </mxCell>
        <mxCell id="K-nqWtAdoZF8oaJMiiUt-32" value="i = 0 ... n1 - 1" style="shape=loopLimit;whiteSpace=wrap;html=1;" vertex="1" parent="1">
          <mxGeometry x="842.5" y="130" width="105" height="55" as="geometry" />
        </mxCell>
        <mxCell id="K-nqWtAdoZF8oaJMiiUt-33" style="edgeStyle=orthogonalEdgeStyle;rounded=0;orthogonalLoop=1;jettySize=auto;html=1;exitX=0.5;exitY=1;exitDx=0;exitDy=0;entryX=0.5;entryY=0;entryDx=0;entryDy=0;" edge="1" parent="1" source="K-nqWtAdoZF8oaJMiiUt-34" target="K-nqWtAdoZF8oaJMiiUt-36">
          <mxGeometry relative="1" as="geometry" />
        </mxCell>
        <mxCell id="K-nqWtAdoZF8oaJMiiUt-34" value="j = 0 ... m2 - 1" style="shape=loopLimit;whiteSpace=wrap;html=1;" vertex="1" parent="1">
          <mxGeometry x="842.5" y="205" width="105" height="55" as="geometry" />
        </mxCell>
        <mxCell id="K-nqWtAdoZF8oaJMiiUt-35" style="edgeStyle=orthogonalEdgeStyle;rounded=0;orthogonalLoop=1;jettySize=auto;html=1;exitX=0.5;exitY=1;exitDx=0;exitDy=0;entryX=0.5;entryY=1;entryDx=0;entryDy=0;" edge="1" parent="1" source="K-nqWtAdoZF8oaJMiiUt-36" target="K-nqWtAdoZF8oaJMiiUt-38">
          <mxGeometry relative="1" as="geometry" />
        </mxCell>
        <mxCell id="K-nqWtAdoZF8oaJMiiUt-36" value="matrix_res[ i ][ j ] += matrix1[ i ][m1 - 1] * matrix2[m1 - 1][ j ]" style="rounded=0;whiteSpace=wrap;html=1;" vertex="1" parent="1">
          <mxGeometry x="825" y="285" width="140" height="62.5" as="geometry" />
        </mxCell>
        <mxCell id="K-nqWtAdoZF8oaJMiiUt-37" style="edgeStyle=orthogonalEdgeStyle;rounded=0;orthogonalLoop=1;jettySize=auto;html=1;exitX=0.5;exitY=0;exitDx=0;exitDy=0;entryX=0.5;entryY=1;entryDx=0;entryDy=0;" edge="1" parent="1" source="K-nqWtAdoZF8oaJMiiUt-38" target="K-nqWtAdoZF8oaJMiiUt-40">
          <mxGeometry relative="1" as="geometry" />
        </mxCell>
        <mxCell id="K-nqWtAdoZF8oaJMiiUt-38" value="&lt;br&gt;" style="shape=loopLimit;whiteSpace=wrap;html=1;rotation=-180;" vertex="1" parent="1">
          <mxGeometry x="843.75" y="367.5" width="105" height="55" as="geometry" />
        </mxCell>
        <mxCell id="K-nqWtAdoZF8oaJMiiUt-39" style="edgeStyle=orthogonalEdgeStyle;rounded=0;orthogonalLoop=1;jettySize=auto;html=1;exitX=0.5;exitY=0;exitDx=0;exitDy=0;entryX=0.5;entryY=0;entryDx=0;entryDy=0;entryPerimeter=0;" edge="1" parent="1" source="K-nqWtAdoZF8oaJMiiUt-40" target="K-nqWtAdoZF8oaJMiiUt-46">
          <mxGeometry relative="1" as="geometry" />
        </mxCell>
        <mxCell id="K-nqWtAdoZF8oaJMiiUt-40" value="&lt;br&gt;" style="shape=loopLimit;whiteSpace=wrap;html=1;rotation=-180;" vertex="1" parent="1">
          <mxGeometry x="841.25" y="440" width="105" height="55" as="geometry" />
        </mxCell>
        <mxCell id="K-nqWtAdoZF8oaJMiiUt-41" value="j++" style="text;html=1;strokeColor=none;fillColor=none;align=center;verticalAlign=middle;whiteSpace=wrap;rounded=0;" vertex="1" parent="1">
          <mxGeometry x="866.25" y="380" width="60" height="30" as="geometry" />
        </mxCell>
        <mxCell id="K-nqWtAdoZF8oaJMiiUt-42" value="i++" style="text;html=1;strokeColor=none;fillColor=none;align=center;verticalAlign=middle;whiteSpace=wrap;rounded=0;" vertex="1" parent="1">
          <mxGeometry x="866.25" y="450" width="60" height="30" as="geometry" />
        </mxCell>
        <mxCell id="K-nqWtAdoZF8oaJMiiUt-43" value="Да" style="text;html=1;strokeColor=none;fillColor=none;align=center;verticalAlign=middle;whiteSpace=wrap;rounded=0;" vertex="1" parent="1">
          <mxGeometry x="726.25" y="355" width="60" height="30" as="geometry" />
        </mxCell>
        <mxCell id="K-nqWtAdoZF8oaJMiiUt-44" style="edgeStyle=orthogonalEdgeStyle;rounded=0;orthogonalLoop=1;jettySize=auto;html=1;exitX=0.5;exitY=1;exitDx=0;exitDy=0;exitPerimeter=0;entryX=0.5;entryY=0.5;entryDx=0;entryDy=-20;entryPerimeter=0;" edge="1" parent="1" source="K-nqWtAdoZF8oaJMiiUt-45" target="K-nqWtAdoZF8oaJMiiUt-9">
          <mxGeometry relative="1" as="geometry">
            <Array as="points">
              <mxPoint x="765" y="540" />
              <mxPoint x="676" y="540" />
            </Array>
          </mxGeometry>
        </mxCell>
        <mxCell id="K-nqWtAdoZF8oaJMiiUt-45" value="E" style="strokeWidth=2;html=1;shape=mxgraph.flowchart.start_2;whiteSpace=wrap;" vertex="1" parent="1">
          <mxGeometry x="739" y="470" width="52" height="50" as="geometry" />
        </mxCell>
        <mxCell id="K-nqWtAdoZF8oaJMiiUt-46" value="E" style="strokeWidth=2;html=1;shape=mxgraph.flowchart.start_2;whiteSpace=wrap;" vertex="1" parent="1">
          <mxGeometry x="870.25" y="515" width="52" height="50" as="geometry" />
        </mxCell>
        <mxCell id="mTOedapShUeqjX-2ew33-1" value="matrix_res[ i ][ j ] += (matrix1[i][k &amp;lt;&amp;lt; 1] +matrix2[k &amp;lt;&amp;lt; 1+1][j])*(matrix1[i][k&amp;lt;&amp;lt; 1&lt;br&gt;+1] + matrix2[k&amp;lt;&amp;lt; 1][j])" style="rounded=0;whiteSpace=wrap;html=1;" vertex="1" parent="1">
          <mxGeometry x="429.5" y="436.25" width="161" height="72.5" as="geometry" />
        </mxCell>
      </root>
    </mxGraphModel>
  </diagram>
</mxfile>
